<svg width="48" height="48"
  xmlns="http://www.w3.org/2000/svg" preserveAspectRatio="xMinYMin meet">
  <path fill="none" d="M-1-1h802v602H-1z"/>
  <g>
    <g class="scaling-icon">
      <g fill-rule="evenodd" fill="none" class="bug-14dp">
        <g class="dp-1">
          <path fill="#FFF" class="bug-text-color" d="M14 1.3v11.4c0 .7-.6 1.3-1.3 1.3H1.3C.6 14 0 13.4 0 12.7V1.3C0 .6.6 0 1.3 0h11.4c.7 0 1.3.6 1.3 1.3"/>
          <path fill="#0073B2" class="background" d="M14 1.3v11.4c0 .7-.6 1.3-1.3 1.3H1.3C.6 14 0 13.4 0 12.7V1.3C0 .6.6 0 1.3 0h11.4c.7 0 1.3.6 1.3 1.3zM5 5h1.9v1c.4-.5 1.1-1 2.3-1 2 0 2.8.8 2.8 3v4h-2V8.7C10 7.3 9.7 7 8.6 7 7.5 6.9 7 7.7 7 9v3H5V5zm-3 7h2V5H2v7zm2.3-9a1.3 1.3 0 11-2.6 0 1.3 1.3 0 012.6 0z"/>
        </g>
        <g transform="scale(.2917)" class="dpi-gt1">
          <rect rx="4" height="46" width="46" y="1" x="1" fill="#FFF" class="bug-text-color"/>
          <path fill="#0077B5" class="background" d="M0 4a4 4 0 014-4h40a4 4 0 014 4v40a4 4 0 01-4 4H4a4 4 0 01-4-4V4zm19 14.3h6.5v3.3c1-2 3.3-3.6 7-3.6 6.9 0 8.5 3.7 8.5 10.6v12.7h-7V30.2c0-4-1-6.2-3.3-6.2-3.3 0-4.7 2.4-4.7 6.2v11.1h-7v-23zM7 41h7V18H7v23zm8-30.5a4.5 4.5 0 11-9 0 4.5 4.5 0 019 0z"/>
        </g>
      </g>
      <g fill-rule="evenodd" fill="none" class="bug-21dp">
        <g class="dp-1">
          <path fill="#FFF" class="bug-text-color" d="M19.5 0h-18C.8 0 0 .7 0 1.5v18c0 .8.5 1.5 1.3 1.5h18c.8 0 1.7-.7 1.7-1.5v-18c0-.8-.7-1.5-1.5-1.5"/>
          <path fill="#0077B5" class="background" d="M19.5 0h-18C.8 0 0 .7 0 1.5v18c0 .8.5 1.5 1.3 1.5h18c.8 0 1.7-.7 1.7-1.5v-18c0-.8-.7-1.5-1.5-1.5zM8 8h2.8v1.4c.5-.7 1.8-1.5 3.3-1.5 3 0 3.9 1.6 3.9 4.6V18h-3v-5c0-1.3-.5-2.5-1.8-2.5-1.5 0-2.2 1-2.2 2.7V18H8V8zM3 18h3V8H3v10zM6.4 4.5a1.9 1.9 0 11-3.8 0 1.9 1.9 0 013.8 0z"/>
        </g>
        <g transform="scale(.4375)" class="dpi-gt1">
          <rect rx="4" height="46" width="46" y="1" x="1" fill="#FFF" class="bug-text-color"/>
          <path fill="#0077B5" class="background" d="M0 4a4 4 0 014-4h40a4 4 0 014 4v40a4 4 0 01-4 4H4a4 4 0 01-4-4V4zm19 14.3h6.5v3.3c1-2 3.3-3.6 7-3.6 6.9 0 8.5 3.7 8.5 10.6v12.7h-7V30.2c0-4-1-6.2-3.3-6.2-3.3 0-4.7 2.4-4.7 6.2v11.1h-7v-23zM7 41h7V18H7v23zm8-30.5a4.5 4.5 0 11-9 0 4.5 4.5 0 019 0z"/>
        </g>
      </g>
      <g fill-rule="evenodd" fill="none" class="bug-28dp">
        <g class="dp-1">
          <path fill="#FFF" class="bug-text-color" d="M25.4 0H2.6A2.6 2.6 0 000 2.6v22.8C0 26.8 1.2 28 2.6 28h22.8c1.4 0 2.6-1.2 2.6-2.6V2.6C28 1.2 26.8 0 25.4 0"/>
          <path fill="#0077B5" class="background" d="M25.4 0H2.6A2.6 2.6 0 000 2.6v22.8C0 26.8 1.2 28 2.6 28h22.8c1.4 0 2.6-1.2 2.6-2.6V2.6C28 1.2 26.8 0 25.4 0zM14.9 12v-2H11v14h4v-6.6c0-1.8.7-3.5 2.6-3.5 1.9 0 2.4 1 2.4 3V24h4v-9c0-3.3-1.7-5.1-5-5.1-2 0-3.6 1.1-4.1 2.1zM4 24h4V10H4v14zM6 3.7a2.3 2.3 0 100 4.6 2.3 2.3 0 000-4.6z"/>
        </g>
        <g transform="scale(.5833)" class="dpi-gt1">
          <rect rx="4" height="46" width="46" y="1" x="1" fill="#FFF" class="bug-text-color"/>
          <path fill="#0077B5" class="background" d="M0 4a4 4 0 014-4h40a4 4 0 014 4v40a4 4 0 01-4 4H4a4 4 0 01-4-4V4zm19 14.3h6.5v3.3c1-2 3.3-3.6 7-3.6 6.9 0 8.5 3.7 8.5 10.6v12.7h-7V30.2c0-4-1-6.2-3.3-6.2-3.3 0-4.7 2.4-4.7 6.2v11.1h-7v-23zM7 41h7V18H7v23zm8-30.5a4.5 4.5 0 11-9 0 4.5 4.5 0 019 0z"/>
        </g>
      </g>
      <g fill-rule="evenodd" fill="none" class="bug-34dp">
        <g class="dp-1">
          <path fill="#FFF" class="bug-text-color" d="M2.8 34h28.4c1.5 0 2.8-1.3 2.8-2.8V2.8C34 1.3 32.7 0 31.2 0H2.8A2.8 2.8 0 000 2.8v28.4C0 32.7 1.3 34 2.8 34"/>
          <path fill="#0077B5" class="background" d="M2.8 34h28.4c1.5 0 2.8-1.3 2.8-2.8V2.8C34 1.3 32.7 0 31.2 0H2.8A2.8 2.8 0 000 2.8v28.4C0 32.7 1.3 34 2.8 34zM13 13h4.8v2.4c.6-1.3 2.4-2.7 4.9-2.7 4.7 0 6.3 2.2 6.3 7.2V29h-5v-8c0-2.7-.5-4.1-2.5-4.1-2.6 0-3.5 2-3.5 4V29h-5V13zM5 29h5V13H5v16zm5.5-21.5a3 3 0 11-6 0 3 3 0 016 0z"/>
        </g>
        <g transform="scale(.7083)" class="dpi-gt1">
          <rect rx="4" height="46" width="46" y="1" x="1" fill="#FFF" class="bug-text-color"/>
          <path fill="#0077B5" class="background" d="M0 4a4 4 0 014-4h40a4 4 0 014 4v40a4 4 0 01-4 4H4a4 4 0 01-4-4V4zm19 14.3h6.5v3.3c1-2 3.3-3.6 7-3.6 6.9 0 8.5 3.7 8.5 10.6v12.7h-7V30.2c0-4-1-6.2-3.3-6.2-3.3 0-4.7 2.4-4.7 6.2v11.1h-7v-23zM7 41h7V18H7v23zm8-30.5a4.5 4.5 0 11-9 0 4.5 4.5 0 019 0z"/>
        </g>
      </g>
      <g fill-rule="evenodd" fill="none" class="bug-40dp">
        <g class="dp-1">
          <path fill="#FFF" class="bug-text-color" d="M40 3.5v33c0 2-1.6 3.5-3.5 3.5h-33c-2 0-3.5-1.6-3.5-3.5v-33C0 1.5 1.6 0 3.5 0h33c2 0 3.5 1.6 3.5 3.5z"/>
          <path fill="#0077B5" class="background" d="M40 3.5v33c0 2-1.6 3.5-3.5 3.5h-33c-2 0-3.5-1.6-3.5-3.5v-33C0 1.5 1.6 0 3.5 0h33c2 0 3.5 1.6 3.5 3.5zM15 15h5.9v3.3a6.4 6.4 0 016-3.6c6.2 0 7.1 4 7.1 9.3v10h-6v-9c0-2.8-.5-5.1-3-5.1-3.2 0-4 2-4 4.6V34h-6V15zM6 34h6V15H6v19zm6.7-25a3.6 3.6 0 11-7.3 0 3.6 3.6 0 017.3 0z"/>
        </g>
        <g transform="scale(.8333)" class="dpi-gt1">
          <rect rx="4" height="46" width="46" y="1" x="1" fill="#FFF" class="bug-text-color"/>
          <path fill="#0077B5" class="background" d="M0 4a4 4 0 014-4h40a4 4 0 014 4v40a4 4 0 01-4 4H4a4 4 0 01-4-4V4zm19 14.3h6.5v3.3c1-2 3.3-3.6 7-3.6 6.9 0 8.5 3.7 8.5 10.6v12.7h-7V30.2c0-4-1-6.2-3.3-6.2-3.3 0-4.7 2.4-4.7 6.2v11.1h-7v-23zM7 41h7V18H7v23zm8-30.5a4.5 4.5 0 11-9 0 4.5 4.5 0 019 0z"/>
        </g>
      </g>
      <g fill-rule="evenodd" fill="none" class="bug-48dp">
        <rect rx="4" height="46" width="46" y="1" x="1" fill="#FFF" class="bug-text-color"/>
        <path fill="#0077B5" class="background" d="M0 4a4 4 0 014-4h40a4 4 0 014 4v40a4 4 0 01-4 4H4a4 4 0 01-4-4V4zm19 14.3h6.5v3.3c1-2 3.3-3.6 7-3.6 6.9 0 8.5 3.7 8.5 10.6v12.7h-7V30.2c0-4-1-6.2-3.3-6.2-3.3 0-4.7 2.4-4.7 6.2v11.1h-7v-23zM7 41h7V18H7v23zm8-30.5a4.5 4.5 0 11-9 0 4.5 4.5 0 019 0z"/>
      </g>
    </g>
  </g>
</svg>